<svg id="Layer_1" data-name="Layer 1" xmlns="http://www.w3.org/2000/svg" xmlns:xlink="http://www.w3.org/1999/xlink" viewBox="0 0 217.69 122.76"><defs><clipPath id="clip-path"><rect y="1.56" width="217.69" height="122.76" style="fill:none"/></clipPath></defs><title>pgba-full</title><g style="clip-path:url(#clip-path)"><path d="M73.52,86.07a1.7,1.7,0,1,1-3.4,0v-15a1.62,1.62,0,0,1,1.7-1.7h7.68c4.71,0,6.77,2.5,6.77,5.47s-2.06,5.47-6.77,5.47h-6ZM79.89,72.2H73.52v5.29h6.37c2,0,3-1.09,3-2.64s-1-2.64-3-2.64" style="fill:#706259"/><path d="M101,78.11h5.9a1.31,1.31,0,0,1,1.41,1.41V83.9a1.37,1.37,0,0,1-.43,1,11.14,11.14,0,0,1-7.82,3c-6.74,0-10.1-4.17-10.1-9.49s4.13-9.49,10-9.49a10.44,10.44,0,0,1,6.92,2.39,1.61,1.61,0,0,1,.61,1.19A1.48,1.48,0,0,1,106.08,74a1.42,1.42,0,0,1-.91-.29A8.05,8.05,0,0,0,100,71.88a6.23,6.23,0,0,0-6.63,6.56c0,3.48,1.81,6.7,6.7,6.7a8,8,0,0,0,5-1.63V80.9H101a1.36,1.36,0,0,1-1.41-1.37A1.39,1.39,0,0,1,101,78.11" style="fill:#706259"/><path d="M128.94,73.8a4.35,4.35,0,0,1-3.15,4.09c3,.4,4.27,2.21,4.27,4.35,0,2.68-2.07,5.25-7.13,5.25h-7.21a1.61,1.61,0,0,1-1.7-1.7V71.08a1.63,1.63,0,0,1,1.7-1.7h7.1c3.84,0,6.12,1.59,6.12,4.42m-11.52,2.86h5.32c1.92,0,2.75-1.09,2.75-2.35s-1-2.1-2.9-2.1h-5.18Zm0,2.82v5.18h5.72c2.57,0,3.55-1.19,3.55-2.68s-1.38-2.5-3.62-2.5Z" style="fill:#706259"/><path d="M144.3,70l7.6,15.5a1.75,1.75,0,0,1,.22.8,1.47,1.47,0,0,1-1.52,1.45A1.69,1.69,0,0,1,149,86.65L147.23,83h-8.76l-1.78,3.66a1.69,1.69,0,0,1-1.59,1.12,1.47,1.47,0,0,1-1.52-1.45,1.76,1.76,0,0,1,.22-.8L141.4,70a1.58,1.58,0,0,1,2.9,0m-4.63,10.36H146l-3.19-6.77Z" style="fill:#706259"/><path d="M133.85,16.44l.11.11-.11-.11" style="fill:#007934"/><path d="M127.47,5.52l.07.09-.07-.09" style="fill:#007934"/><path d="M91.31,6.06v0" style="fill:#007934"/><path d="M134.16,17.09s0,0,0,.07a.61.61,0,0,0,0-.07" style="fill:#007934"/><path d="M127.36,5.42l0,0,0,0" style="fill:#007934"/><path d="M134.07,16.73l0,.11,0-.11" style="fill:#007934"/><path d="M134,16.57l.08.12-.08-.12" style="fill:#007934"/><path d="M85.23,17a.87.87,0,0,1,0-.14.89.89,0,0,0,0,.14" style="fill:#007934"/><path d="M134.14,16.91l0,.09,0-.09" style="fill:#007934"/><path d="M85.23,17.18a.78.78,0,0,1,0-.1.78.78,0,0,0,0,.1" style="fill:#007934"/><path d="M114.93,47.66a.9.9,0,0,1,.2-1.26l.44-.33a40.64,40.64,0,0,1-4.7-2.93,44.54,44.54,0,0,0,11.25-12.74,43.2,43.2,0,0,0,5.25-15.47,40.71,40.71,0,0,1,4.94,2.63l.07-.55a.9.9,0,0,1,1.48-.59l-.06-.06A38.7,38.7,0,0,0,127.58,13a37.39,37.39,0,0,0,.12-7,.91.91,0,0,0-.14-.4.9.9,0,0,1-1.12,1.31l-.5-.21a39.24,39.24,0,0,1-.13,5.55,44.38,44.38,0,0,0-16.12-3.16h0a44.48,44.48,0,0,0-16.49,3.31A40.13,40.13,0,0,1,93,6.91l-.5.21a.9.9,0,0,1-1.26-.93v0a38.26,38.26,0,0,0,.15,7,38.27,38.27,0,0,0-5.82,3.18.89.89,0,0,0-.35.5A.9.9,0,0,1,87,17l.07.54a40.48,40.48,0,0,1,4.57-2.46,43.74,43.74,0,0,0,5.29,15.6,44.41,44.41,0,0,0,10.84,12.42,40.05,40.05,0,0,1-4.29,2.64l.44.35a.9.9,0,0,1,.18,1.27.88.88,0,0,1-.26.23,38.53,38.53,0,0,0,5.46-3.32,38.61,38.61,0,0,0,5.94,3.65.9.9,0,0,0,.26.07.89.89,0,0,1-.6-.36M98.51,29.8a42.13,42.13,0,0,1-5.11-15.46,40.7,40.7,0,0,1,32.2-.15,41.62,41.62,0,0,1-5.07,15.31A43,43,0,0,1,109.33,42,42.82,42.82,0,0,1,98.51,29.8" style="fill:#a9c23e"/><path d="M104.13,47.38a.9.9,0,0,0-.18-1.27l-.44-.35a42.75,42.75,0,0,1-11-12.09,43,43,0,0,1-5.38-16.11c0-.18,0-.36-.07-.54a.9.9,0,0,0-1.77-.15h0a.87.87,0,0,0,0,.14v.06s0,.06,0,.1,0,0,0,.06a45.09,45.09,0,0,0,5.69,17.36,44.8,44.8,0,0,0,11.95,13,.92.92,0,0,0,1.27-.18" style="fill:#007934"/><path d="M91.35,6.66a.9.9,0,0,0,.83.54.89.89,0,0,0,.36-.08l.5-.22a40.91,40.91,0,0,1,32.9-.16l.5.21a.89.89,0,0,0,.35.07.9.9,0,0,0,.77-1.38l0,0-.07-.08-.08-.08,0,0a.88.88,0,0,0-.22-.13,45.17,45.17,0,0,0-17.46-3.72h0a45.27,45.27,0,0,0-17.87,3.9.9.9,0,0,0-.5.57v0a.9.9,0,0,0,0,.13.9.9,0,0,0,.07.47" style="fill:#007934"/><path d="M134.16,17.09s0-.06,0-.09l0-.09,0-.07,0-.11,0,0-.08-.12v0l-.11-.11h0a.9.9,0,0,0-1.48.59c0,.18,0,.36-.07.55A42.72,42.72,0,0,1,127,33.37a43.29,43.29,0,0,1-11.48,12.7l-.44.33a.9.9,0,0,0-.19,1.26.89.89,0,0,0,.6.36l.13,0a.9.9,0,0,0,.53-.17,45.35,45.35,0,0,0,12.42-13.58,44.63,44.63,0,0,0,5.55-17.05.54.54,0,0,0,0-.06s0-.05,0-.07" style="fill:#007934"/><path d="M4.82,103.14,8.68,111a.57.57,0,0,1,.07.22.46.46,0,0,1-.5.47c-.24,0-.35-.12-.47-.34l-1.1-2.26H2.07L1,111.39c-.12.22-.22.34-.46.34a.46.46,0,0,1-.5-.47A.57.57,0,0,1,.07,111l3.86-7.9a.49.49,0,0,1,.9,0m-.45,1.1-1.91,4.06H6.29Z" style="fill:#706259"/><path d="M24,104.16a.51.51,0,0,1,.17.38.46.46,0,0,1-.47.45.63.63,0,0,1-.47-.22,3.54,3.54,0,0,0-2.58-1.08,3.62,3.62,0,1,0,0,7.23,3.54,3.54,0,0,0,2.58-1.08.63.63,0,0,1,.47-.22.46.46,0,0,1,.47.45.51.51,0,0,1-.17.38,4.67,4.67,0,0,1-3.43,1.38,4.51,4.51,0,1,1,0-9A4.66,4.66,0,0,1,24,104.16" style="fill:#706259"/><path d="M27.26,110.7h5.15a.45.45,0,1,1,0,.9H26.75a.51.51,0,0,1-.52-.52V103.5a.51.51,0,0,1,.52-.52h5.48a.45.45,0,0,1,0,.9h-5v2.75h2.91a.45.45,0,0,1,0,.9H27.26Z" style="fill:#706259"/><path d="M40.84,110.7a.45.45,0,0,1,0,.9H35.4a.51.51,0,0,1-.52-.52v-7.71a.52.52,0,1,1,1,0v7.34Z" style="fill:#706259"/><path d="M44.27,110.7h5.15a.45.45,0,1,1,0,.9H43.75a.51.51,0,0,1-.52-.52V103.5a.51.51,0,0,1,.52-.52h5.48a.45.45,0,0,1,0,.9h-5v2.75h2.91a.45.45,0,0,1,0,.9H44.27Z" style="fill:#706259"/><path d="M52.92,111.22a.52.52,0,0,1-1,0V103.5a.5.5,0,0,1,.52-.52h4.24c1.95,0,3,1,3,2.44a2.36,2.36,0,0,1-2.1,2.36L59.26,111a.57.57,0,0,1,.07.26.47.47,0,0,1-.48.46.46.46,0,0,1-.45-.28l-2-3.6H52.92Zm3.88-7.35H52.92V107H56.8c1.12,0,1.77-.62,1.77-1.55a1.56,1.56,0,0,0-1.77-1.57" style="fill:#706259"/><path d="M63.14,111.22a.52.52,0,1,1-1,0v-7.85a.52.52,0,1,1,1,0Z" style="fill:#706259"/><path d="M70,103.14l3.86,7.9a.56.56,0,0,1,.07.22.46.46,0,0,1-.5.47c-.24,0-.35-.12-.47-.34l-1.1-2.26H67.29l-1.1,2.26c-.12.22-.22.34-.46.34a.46.46,0,0,1-.5-.47.56.56,0,0,1,.07-.22l3.86-7.9a.49.49,0,0,1,.9,0m-.45,1.1-1.91,4.06h3.82Z" style="fill:#706259"/><path d="M82.78,110v-6.65a.5.5,0,1,1,1,0v7.87a.47.47,0,0,1-.5.5.61.61,0,0,1-.46-.26L77,104.62v6.61a.51.51,0,0,1-.5.5.5.5,0,0,1-.5-.5v-7.89a.47.47,0,0,1,.5-.5.56.56,0,0,1,.45.24Z" style="fill:#706259"/><path d="M96.79,107.36h3.07a.43.43,0,0,1,.43.43V110a.53.53,0,0,1-.15.34,5.34,5.34,0,0,1-3.77,1.48,4.51,4.51,0,1,1,0-9A4.67,4.67,0,0,1,99.65,104a.47.47,0,0,1,.17.33.46.46,0,0,1-.47.45.5.5,0,0,1-.34-.12,3.86,3.86,0,0,0-2.65-1,3.64,3.64,0,1,0,0,7.28,4.47,4.47,0,0,0,2.93-1v-1.69H96.79a.42.42,0,0,1-.43-.43.43.43,0,0,1,.43-.43" style="fill:#706259"/><path d="M103.76,111.22a.52.52,0,0,1-1,0V103.5a.5.5,0,0,1,.52-.52h4.24c1.95,0,3,1,3,2.44a2.36,2.36,0,0,1-2.1,2.36l1.76,3.22a.57.57,0,0,1,.07.26.47.47,0,0,1-.48.46.46.46,0,0,1-.45-.28l-2-3.6h-3.51Zm3.87-7.35h-3.87V107h3.87c1.12,0,1.77-.62,1.77-1.55a1.56,1.56,0,0,0-1.77-1.57" style="fill:#706259"/><path d="M116.84,111.81a4.51,4.51,0,1,1,4.55-4.51,4.35,4.35,0,0,1-4.55,4.51m3.51-4.51a3.52,3.52,0,1,0-3.51,3.63,3.43,3.43,0,0,0,3.51-3.63" style="fill:#706259"/><path d="M123.58,108.21v-4.84a.52.52,0,1,1,1,0v4.93c0,1.53,1,2.62,3,2.62s3-1.09,3-2.62v-4.93a.52.52,0,1,1,1,0v4.84c0,2.2-1.57,3.6-4,3.6s-4-1.39-4-3.6" style="fill:#706259"/><path d="M135.47,111.22a.52.52,0,0,1-1,0V103.5A.5.5,0,0,1,135,103h3.81c1.95,0,3,1,3,2.48s-1,2.46-3,2.46h-3.29Zm3.44-7.35h-3.44v3.19h3.44a1.6,1.6,0,1,0,0-3.19" style="fill:#706259"/><path d="M156.65,104.16a.51.51,0,0,1,.17.38.46.46,0,0,1-.46.45.63.63,0,0,1-.46-.22,3.55,3.55,0,0,0-2.58-1.08,3.62,3.62,0,1,0,0,7.23,3.55,3.55,0,0,0,2.58-1.08.63.63,0,0,1,.46-.22.46.46,0,0,1,.46.45.52.52,0,0,1-.17.38,4.67,4.67,0,0,1-3.43,1.38,4.51,4.51,0,1,1,0-9,4.66,4.66,0,0,1,3.43,1.38" style="fill:#706259"/><path d="M162.86,111.81a4.51,4.51,0,1,1,4.55-4.51,4.35,4.35,0,0,1-4.55,4.51m3.51-4.51a3.52,3.52,0,1,0-3.51,3.63,3.43,3.43,0,0,0,3.51-3.63" style="fill:#706259"/><path d="M179,111.24a.5.5,0,1,1-1,0v-6.17l-3.15,6.32a.53.53,0,0,1-1,0l-3.15-6.32v6.17a.5.5,0,0,1-1,0v-7.89a.48.48,0,0,1,.5-.5.56.56,0,0,1,.55.38l3.6,7.22,3.6-7.22a.56.56,0,0,1,.55-.38.48.48,0,0,1,.5.5Z" style="fill:#706259"/><path d="M183,111.22a.52.52,0,0,1-1,0V103.5a.5.5,0,0,1,.52-.52h3.81c1.95,0,3,1,3,2.48s-1,2.46-3,2.46H183Zm3.44-7.35H183v3.19h3.44a1.6,1.6,0,1,0,0-3.19" style="fill:#706259"/><path d="M194.39,103.14l3.86,7.9a.57.57,0,0,1,.07.22.46.46,0,0,1-.5.47c-.24,0-.34-.12-.47-.34l-1.1-2.26h-4.62l-1.1,2.26c-.12.22-.22.34-.47.34a.46.46,0,0,1-.5-.47.54.54,0,0,1,.07-.22l3.86-7.9a.49.49,0,0,1,.9,0m-.45,1.1L192,108.31h3.82Z" style="fill:#706259"/><path d="M207.11,110v-6.65a.5.5,0,1,1,1,0v7.87a.47.47,0,0,1-.5.5.61.61,0,0,1-.47-.26l-5.77-6.84v6.61a.51.51,0,0,1-.5.5.5.5,0,0,1-.5-.5v-7.89a.47.47,0,0,1,.5-.5.56.56,0,0,1,.45.24Z" style="fill:#706259"/><path d="M214.26,107.91v3.31a.52.52,0,1,1-1,0v-3.31l-3.29-4.29a.48.48,0,1,1,.77-.55l3,3.94,3-3.94a.47.47,0,0,1,.41-.23.45.45,0,0,1,.36.78Z" style="fill:#706259"/><path d="M133.85,16.44l.11.11-.11-.11" style="fill:#706259"/><path d="M127.47,5.52l.07.09-.07-.09" style="fill:#706259"/><path d="M91.31,6.06v0" style="fill:#706259"/><path d="M134.16,17.09s0,0,0,.07a.61.61,0,0,0,0-.07" style="fill:#706259"/><path d="M127.36,5.42l0,0,0,0" style="fill:#706259"/><path d="M134.07,16.73l0,.11,0-.11" style="fill:#706259"/><path d="M134,16.57l.08.12-.08-.12" style="fill:#706259"/><path d="M85.23,17a.87.87,0,0,1,0-.14.89.89,0,0,0,0,.14" style="fill:#706259"/><path d="M134.14,16.91l0,.09,0-.09" style="fill:#706259"/><path d="M85.23,17.18a.78.78,0,0,1,0-.1.78.78,0,0,0,0,.1" style="fill:#706259"/><path d="M158.13,81a3.36,3.36,0,1,1-3.36,3.36A3.29,3.29,0,0,1,158.13,81m0,6.38a3,3,0,1,0-3-3,2.92,2.92,0,0,0,3,3m-.81-4.84h1a1,1,0,0,1,1.07,1,1,1,0,0,1-.71,1l.75,1.28a.17.17,0,0,1-.08.24.19.19,0,0,1-.24-.08l-.79-1.4h-.81V86a.18.18,0,1,1-.37,0V82.74a.18.18,0,0,1,.18-.18m.18.32v1.44h.81a.72.72,0,0,0,0-1.44Z" style="fill:#706259"/></g></svg>